M48
; DRILL file {KiCad (5.99.0-3972-g658234715)} date Monday, October 12, 2020 at 06:33:02 PM
; FORMAT={-:-/ absolute / inch / decimal}
; #@! TF.CreationDate,2020-10-12T18:33:02-04:00
; #@! TF.GenerationSoftware,Kicad,Pcbnew,(5.99.0-3972-g658234715)
; #@! TF.FileFunction,Plated,1,2,PTH
FMAT,2
INCH
T1C0.0157
T2C0.0315
T3C0.0394
T4C0.0400
T5C0.0827
%
G90
G05
T1
X2.6476Y-4.2126
X3.2579Y-4.1732
X3.5236Y-4.2323
X4.4094Y-3.937
X4.4094Y-4.2913
X4.4587Y-3.9764
X4.4587Y-4.1535
X4.6555Y-3.8681
X4.6555Y-4.1339
X5.0492Y-4.2421
X5.2264Y-4.6555
X5.2362Y-4.3406
X5.502Y-4.0846
X5.6791Y-4.0453
X5.7283Y-4.0059
T2
X2.95Y-4.15
X2.95Y-4.25
X2.95Y-4.35
T3
X3.4713Y-4.05
X3.5697Y-4.05
X3.6681Y-4.05
X3.7665Y-4.05
X4.6524Y-4.05
X4.7508Y-4.05
X4.8492Y-4.05
X4.9476Y-4.05
X2.5476Y-3.8878
X2.6476Y-3.8878
X2.7476Y-3.8878
X2.5492Y-4.1504
X2.5492Y-4.2504
X2.5492Y-4.3504
X2.5492Y-4.4504
X2.5492Y-4.5504
X2.5492Y-4.6504
T4
X5.7776Y-4.2224
T5
X3.3512Y-4.4831
X3.8866Y-4.4831
X4.5323Y-4.4831
X5.0677Y-4.4831
T0
M30
