%TF.GenerationSoftware,KiCad,Pcbnew,(5.99.0-3972-g658234715)*%
%TF.CreationDate,2020-10-12T18:33:04-04:00*%
%TF.ProjectId,lamp_refurb,6c616d70-5f72-4656-9675-72622e6b6963,1.0*%
%TF.SameCoordinates,Original*%
%TF.FileFunction,Legend,Top*%
%TF.FilePolarity,Positive*%
%FSLAX46Y46*%
G04 Gerber Fmt 4.6, Leading zero omitted, Abs format (unit mm)*
G04 Created by KiCad (PCBNEW (5.99.0-3972-g658234715)) date 2020-10-12 18:33:04*
%MOMM*%
%LPD*%
G01*
G04 APERTURE LIST*
%ADD10C,0.150000*%
%ADD11C,0.120000*%
G04 APERTURE END LIST*
D10*
X67488095Y-107540000D02*
X67392857Y-107492380D01*
X67250000Y-107492380D01*
X67107142Y-107540000D01*
X67011904Y-107635238D01*
X66964285Y-107730476D01*
X66916666Y-107920952D01*
X66916666Y-108063809D01*
X66964285Y-108254285D01*
X67011904Y-108349523D01*
X67107142Y-108444761D01*
X67250000Y-108492380D01*
X67345238Y-108492380D01*
X67488095Y-108444761D01*
X67535714Y-108397142D01*
X67535714Y-108063809D01*
X67345238Y-108063809D01*
X67964285Y-108492380D02*
X67964285Y-107492380D01*
X68535714Y-108492380D01*
X68535714Y-107492380D01*
X69011904Y-108492380D02*
X69011904Y-107492380D01*
X69250000Y-107492380D01*
X69392857Y-107540000D01*
X69488095Y-107635238D01*
X69535714Y-107730476D01*
X69583333Y-107920952D01*
X69583333Y-108063809D01*
X69535714Y-108254285D01*
X69488095Y-108349523D01*
X69392857Y-108444761D01*
X69250000Y-108492380D01*
X69011904Y-108492380D01*
X67845238Y-113048571D02*
X67988095Y-113096190D01*
X68035714Y-113143809D01*
X68083333Y-113239047D01*
X68083333Y-113381904D01*
X68035714Y-113477142D01*
X67988095Y-113524761D01*
X67892857Y-113572380D01*
X67511904Y-113572380D01*
X67511904Y-112572380D01*
X67845238Y-112572380D01*
X67940476Y-112620000D01*
X67988095Y-112667619D01*
X68035714Y-112762857D01*
X68035714Y-112858095D01*
X67988095Y-112953333D01*
X67940476Y-113000952D01*
X67845238Y-113048571D01*
X67511904Y-113048571D01*
X68464285Y-112667619D02*
X68511904Y-112620000D01*
X68607142Y-112572380D01*
X68845238Y-112572380D01*
X68940476Y-112620000D01*
X68988095Y-112667619D01*
X69035714Y-112762857D01*
X69035714Y-112858095D01*
X68988095Y-113000952D01*
X68416666Y-113572380D01*
X69035714Y-113572380D01*
X67845238Y-110508571D02*
X67988095Y-110556190D01*
X68035714Y-110603809D01*
X68083333Y-110699047D01*
X68083333Y-110841904D01*
X68035714Y-110937142D01*
X67988095Y-110984761D01*
X67892857Y-111032380D01*
X67511904Y-111032380D01*
X67511904Y-110032380D01*
X67845238Y-110032380D01*
X67940476Y-110080000D01*
X67988095Y-110127619D01*
X68035714Y-110222857D01*
X68035714Y-110318095D01*
X67988095Y-110413333D01*
X67940476Y-110460952D01*
X67845238Y-110508571D01*
X67511904Y-110508571D01*
X69035714Y-111032380D02*
X68464285Y-111032380D01*
X68750000Y-111032380D02*
X68750000Y-110032380D01*
X68654761Y-110175238D01*
X68559523Y-110270476D01*
X68464285Y-110318095D01*
X67488095Y-115160000D02*
X67392857Y-115112380D01*
X67250000Y-115112380D01*
X67107142Y-115160000D01*
X67011904Y-115255238D01*
X66964285Y-115350476D01*
X66916666Y-115540952D01*
X66916666Y-115683809D01*
X66964285Y-115874285D01*
X67011904Y-115969523D01*
X67107142Y-116064761D01*
X67250000Y-116112380D01*
X67345238Y-116112380D01*
X67488095Y-116064761D01*
X67535714Y-116017142D01*
X67535714Y-115683809D01*
X67345238Y-115683809D01*
X67964285Y-116112380D02*
X67964285Y-115112380D01*
X68535714Y-116112380D01*
X68535714Y-115112380D01*
X69011904Y-116112380D02*
X69011904Y-115112380D01*
X69250000Y-115112380D01*
X69392857Y-115160000D01*
X69488095Y-115255238D01*
X69535714Y-115350476D01*
X69583333Y-115540952D01*
X69583333Y-115683809D01*
X69535714Y-115874285D01*
X69488095Y-115969523D01*
X69392857Y-116064761D01*
X69250000Y-116112380D01*
X69011904Y-116112380D01*
X67630952Y-105952380D02*
X67059523Y-105952380D01*
X67345238Y-105952380D02*
X67345238Y-104952380D01*
X67250000Y-105095238D01*
X67154761Y-105190476D01*
X67059523Y-105238095D01*
X68011904Y-105047619D02*
X68059523Y-105000000D01*
X68154761Y-104952380D01*
X68392857Y-104952380D01*
X68488095Y-105000000D01*
X68535714Y-105047619D01*
X68583333Y-105142857D01*
X68583333Y-105238095D01*
X68535714Y-105380952D01*
X67964285Y-105952380D01*
X68583333Y-105952380D01*
X68869047Y-104952380D02*
X69202380Y-105952380D01*
X69535714Y-104952380D01*
X67488095Y-117700000D02*
X67392857Y-117652380D01*
X67250000Y-117652380D01*
X67107142Y-117700000D01*
X67011904Y-117795238D01*
X66964285Y-117890476D01*
X66916666Y-118080952D01*
X66916666Y-118223809D01*
X66964285Y-118414285D01*
X67011904Y-118509523D01*
X67107142Y-118604761D01*
X67250000Y-118652380D01*
X67345238Y-118652380D01*
X67488095Y-118604761D01*
X67535714Y-118557142D01*
X67535714Y-118223809D01*
X67345238Y-118223809D01*
X67964285Y-118652380D02*
X67964285Y-117652380D01*
X68535714Y-118652380D01*
X68535714Y-117652380D01*
X69011904Y-118652380D02*
X69011904Y-117652380D01*
X69250000Y-117652380D01*
X69392857Y-117700000D01*
X69488095Y-117795238D01*
X69535714Y-117890476D01*
X69583333Y-118080952D01*
X69583333Y-118223809D01*
X69535714Y-118414285D01*
X69488095Y-118509523D01*
X69392857Y-118604761D01*
X69250000Y-118652380D01*
X69011904Y-118652380D01*
X69380952Y-101452380D02*
X68809523Y-101452380D01*
X69095238Y-101452380D02*
X69095238Y-100452380D01*
X69000000Y-100595238D01*
X68904761Y-100690476D01*
X68809523Y-100738095D01*
X69761904Y-100547619D02*
X69809523Y-100500000D01*
X69904761Y-100452380D01*
X70142857Y-100452380D01*
X70238095Y-100500000D01*
X70285714Y-100547619D01*
X70333333Y-100642857D01*
X70333333Y-100738095D01*
X70285714Y-100880952D01*
X69714285Y-101452380D01*
X70333333Y-101452380D01*
X70619047Y-100452380D02*
X70952380Y-101452380D01*
X71285714Y-100452380D01*
X64321428Y-100452380D02*
X64559523Y-101452380D01*
X64750000Y-100738095D01*
X64940476Y-101452380D01*
X65178571Y-100452380D01*
X67559523Y-101357142D02*
X67511904Y-101404761D01*
X67369047Y-101452380D01*
X67273809Y-101452380D01*
X67130952Y-101404761D01*
X67035714Y-101309523D01*
X66988095Y-101214285D01*
X66940476Y-101023809D01*
X66940476Y-100880952D01*
X66988095Y-100690476D01*
X67035714Y-100595238D01*
X67130952Y-100500000D01*
X67273809Y-100452380D01*
X67369047Y-100452380D01*
X67511904Y-100500000D01*
X67559523Y-100547619D01*
%TO.C,J1*%
X106916666Y-100202380D02*
X106916666Y-100916666D01*
X106869047Y-101059523D01*
X106773809Y-101154761D01*
X106630952Y-101202380D01*
X106535714Y-101202380D01*
X107916666Y-101202380D02*
X107345238Y-101202380D01*
X107630952Y-101202380D02*
X107630952Y-100202380D01*
X107535714Y-100345238D01*
X107440476Y-100440476D01*
X107345238Y-100488095D01*
%TO.C,D1*%
X129261904Y-105952380D02*
X129261904Y-104952380D01*
X129500000Y-104952380D01*
X129642857Y-105000000D01*
X129738095Y-105095238D01*
X129785714Y-105190476D01*
X129833333Y-105380952D01*
X129833333Y-105523809D01*
X129785714Y-105714285D01*
X129738095Y-105809523D01*
X129642857Y-105904761D01*
X129500000Y-105952380D01*
X129261904Y-105952380D01*
X130785714Y-105952380D02*
X130214285Y-105952380D01*
X130500000Y-105952380D02*
X130500000Y-104952380D01*
X130404761Y-105095238D01*
X130309523Y-105190476D01*
X130214285Y-105238095D01*
%TO.C,Q1*%
X93654761Y-111947619D02*
X93559523Y-111900000D01*
X93464285Y-111804761D01*
X93321428Y-111661904D01*
X93226190Y-111614285D01*
X93130952Y-111614285D01*
X93178571Y-111852380D02*
X93083333Y-111804761D01*
X92988095Y-111709523D01*
X92940476Y-111519047D01*
X92940476Y-111185714D01*
X92988095Y-110995238D01*
X93083333Y-110900000D01*
X93178571Y-110852380D01*
X93369047Y-110852380D01*
X93464285Y-110900000D01*
X93559523Y-110995238D01*
X93607142Y-111185714D01*
X93607142Y-111519047D01*
X93559523Y-111709523D01*
X93464285Y-111804761D01*
X93369047Y-111852380D01*
X93178571Y-111852380D01*
X94559523Y-111852380D02*
X93988095Y-111852380D01*
X94273809Y-111852380D02*
X94273809Y-110852380D01*
X94178571Y-110995238D01*
X94083333Y-111090476D01*
X93988095Y-111138095D01*
%TO.C,U3*%
X76738095Y-100452380D02*
X76738095Y-101261904D01*
X76785714Y-101357142D01*
X76833333Y-101404761D01*
X76928571Y-101452380D01*
X77119047Y-101452380D01*
X77214285Y-101404761D01*
X77261904Y-101357142D01*
X77309523Y-101261904D01*
X77309523Y-100452380D01*
X77690476Y-100452380D02*
X78309523Y-100452380D01*
X77976190Y-100833333D01*
X78119047Y-100833333D01*
X78214285Y-100880952D01*
X78261904Y-100928571D01*
X78309523Y-101023809D01*
X78309523Y-101261904D01*
X78261904Y-101357142D01*
X78214285Y-101404761D01*
X78119047Y-101452380D01*
X77833333Y-101452380D01*
X77738095Y-101404761D01*
X77690476Y-101357142D01*
%TO.C,R4*%
X132583333Y-110952380D02*
X132250000Y-110476190D01*
X132011904Y-110952380D02*
X132011904Y-109952380D01*
X132392857Y-109952380D01*
X132488095Y-110000000D01*
X132535714Y-110047619D01*
X132583333Y-110142857D01*
X132583333Y-110285714D01*
X132535714Y-110380952D01*
X132488095Y-110428571D01*
X132392857Y-110476190D01*
X132011904Y-110476190D01*
X133440476Y-110285714D02*
X133440476Y-110952380D01*
X133202380Y-109904761D02*
X132964285Y-110619047D01*
X133583333Y-110619047D01*
%TO.C,U1*%
X136868095Y-97122380D02*
X136868095Y-97931904D01*
X136915714Y-98027142D01*
X136963333Y-98074761D01*
X137058571Y-98122380D01*
X137249047Y-98122380D01*
X137344285Y-98074761D01*
X137391904Y-98027142D01*
X137439523Y-97931904D01*
X137439523Y-97122380D01*
X138439523Y-98122380D02*
X137868095Y-98122380D01*
X138153809Y-98122380D02*
X138153809Y-97122380D01*
X138058571Y-97265238D01*
X137963333Y-97360476D01*
X137868095Y-97408095D01*
%TO.C,R1*%
X84802380Y-104095760D02*
X84326190Y-104429094D01*
X84802380Y-104667189D02*
X83802380Y-104667189D01*
X83802380Y-104286236D01*
X83850000Y-104190998D01*
X83897619Y-104143379D01*
X83992857Y-104095760D01*
X84135714Y-104095760D01*
X84230952Y-104143379D01*
X84278571Y-104190998D01*
X84326190Y-104286236D01*
X84326190Y-104667189D01*
X84802380Y-103143379D02*
X84802380Y-103714808D01*
X84802380Y-103429094D02*
X83802380Y-103429094D01*
X83945238Y-103524332D01*
X84040476Y-103619570D01*
X84088095Y-103714808D01*
%TO.C,R2*%
X114802380Y-103922507D02*
X114326190Y-104255841D01*
X114802380Y-104493936D02*
X113802380Y-104493936D01*
X113802380Y-104112983D01*
X113850000Y-104017745D01*
X113897619Y-103970126D01*
X113992857Y-103922507D01*
X114135714Y-103922507D01*
X114230952Y-103970126D01*
X114278571Y-104017745D01*
X114326190Y-104112983D01*
X114326190Y-104493936D01*
X113897619Y-103541555D02*
X113850000Y-103493936D01*
X113802380Y-103398698D01*
X113802380Y-103160602D01*
X113850000Y-103065364D01*
X113897619Y-103017745D01*
X113992857Y-102970126D01*
X114088095Y-102970126D01*
X114230952Y-103017745D01*
X114802380Y-103589174D01*
X114802380Y-102970126D01*
%TO.C,C1*%
X84677142Y-108166666D02*
X84724761Y-108214285D01*
X84772380Y-108357142D01*
X84772380Y-108452380D01*
X84724761Y-108595238D01*
X84629523Y-108690476D01*
X84534285Y-108738095D01*
X84343809Y-108785714D01*
X84200952Y-108785714D01*
X84010476Y-108738095D01*
X83915238Y-108690476D01*
X83820000Y-108595238D01*
X83772380Y-108452380D01*
X83772380Y-108357142D01*
X83820000Y-108214285D01*
X83867619Y-108166666D01*
X84772380Y-107214285D02*
X84772380Y-107785714D01*
X84772380Y-107500000D02*
X83772380Y-107500000D01*
X83915238Y-107595238D01*
X84010476Y-107690476D01*
X84058095Y-107785714D01*
D11*
%TO.C,J1*%
X104460000Y-101600000D02*
X109540000Y-101600000D01*
X109540000Y-114300000D02*
X104460000Y-114300000D01*
X109540000Y-101600000D02*
X109540000Y-114300000D01*
X104460000Y-106045000D02*
X104460000Y-101600000D01*
X104460000Y-114300000D02*
X104460000Y-108585000D01*
%TO.C,D1*%
X129040000Y-107000000D02*
X129040000Y-109685000D01*
X129040000Y-109685000D02*
X130960000Y-109685000D01*
X130960000Y-109685000D02*
X130960000Y-107000000D01*
%TO.C,Q1*%
X93750000Y-105440000D02*
X91800000Y-105440000D01*
X93750000Y-110560000D02*
X91800000Y-110560000D01*
X93750000Y-105440000D02*
X95700000Y-105440000D01*
X93750000Y-110560000D02*
X97200000Y-110560000D01*
%TO.C,U3*%
X72870000Y-102039000D02*
X72870000Y-113760000D01*
X81490000Y-102039000D02*
X81490000Y-113760000D01*
X81490000Y-102039000D02*
X72870000Y-102039000D01*
X72630000Y-101799000D02*
X72630000Y-103039000D01*
X81490000Y-113760000D02*
X72870000Y-113760000D01*
X73870000Y-101799000D02*
X72630000Y-101799000D01*
%TO.C,J2*%
X65980000Y-97420000D02*
X71120000Y-97420000D01*
X65980000Y-100080000D02*
X71120000Y-100080000D01*
X64710000Y-100080000D02*
X63380000Y-100080000D01*
X65980000Y-100080000D02*
X65980000Y-97420000D01*
X71120000Y-100080000D02*
X71120000Y-97420000D01*
X63380000Y-100080000D02*
X63380000Y-98750000D01*
%TO.C,R4*%
X133485000Y-107772936D02*
X133485000Y-108227064D01*
X132015000Y-107772936D02*
X132015000Y-108227064D01*
%TO.C,U1*%
X136960000Y-99160000D02*
X136180000Y-99160000D01*
X161925000Y-99160000D02*
X161925000Y-117400000D01*
X155505000Y-99160000D02*
X155505000Y-98780000D01*
X161925000Y-117400000D02*
X155505000Y-117400000D01*
X136180000Y-99160000D02*
X136180000Y-100160000D01*
X161925000Y-99160000D02*
X155505000Y-99160000D01*
X136180000Y-117400000D02*
X136180000Y-116400000D01*
X136960000Y-117400000D02*
X136180000Y-117400000D01*
%TO.C,R1*%
X85265000Y-104156158D02*
X85265000Y-103702030D01*
X86735000Y-104156158D02*
X86735000Y-103702030D01*
%TO.C,J3*%
X63420000Y-106690000D02*
X63420000Y-119450000D01*
X63420000Y-105420000D02*
X63420000Y-104090000D01*
X66080000Y-106690000D02*
X66080000Y-119450000D01*
X63420000Y-106690000D02*
X66080000Y-106690000D01*
X63420000Y-104090000D02*
X64750000Y-104090000D01*
X63420000Y-119450000D02*
X66080000Y-119450000D01*
%TO.C,R2*%
X115265000Y-103982905D02*
X115265000Y-103528777D01*
X116735000Y-103982905D02*
X116735000Y-103528777D01*
%TO.C,C1*%
X86735000Y-108261252D02*
X86735000Y-107738748D01*
X85265000Y-108261252D02*
X85265000Y-107738748D01*
%TD*%
M02*
